<?xml version="1.0" encoding="UTF-8" standalone="no"?>
<!-- Created with Inkscape (http://www.inkscape.org/) -->

<svg
   xmlns:dc="http://purl.org/dc/elements/1.1/"
   xmlns:cc="http://creativecommons.org/ns#"
   xmlns:rdf="http://www.w3.org/1999/02/22-rdf-syntax-ns#"
   xmlns:svg="http://www.w3.org/2000/svg"
   xmlns="http://www.w3.org/2000/svg"
   xmlns:sodipodi="http://sodipodi.sourceforge.net/DTD/sodipodi-0.dtd"
   xmlns:inkscape="http://www.inkscape.org/namespaces/inkscape"
   width="235.30099"
   height="156.99374"
   viewBox="0 0 235.301 156.99374"
   id="svg2"
   version="1.1"
   inkscape:version="0.91 r13725"
   sodipodi:docname="new_logo.html">
  <defs
     id="defs4">
    <clipPath
       id="clipPath4171"
       clipPathUnits="userSpaceOnUse">
      <path
         inkscape:connector-curvature="0"
         id="path4173"
         d="m 0,0 595.276,0 0,841.89 L 0,841.89 0,0 Z" />
    </clipPath>
    <clipPath
       id="clipPath4315"
       clipPathUnits="userSpaceOnUse">
      <path
         inkscape:connector-curvature="0"
         id="path4317"
         d="m 0,0 595.276,0 0,841.89 L 0,841.89 0,0 Z" />
    </clipPath>
    <clipPath
       id="clipPath4335"
       clipPathUnits="userSpaceOnUse">
      <path
         inkscape:connector-curvature="0"
         id="path4337"
         d="m 0,0 595.276,0 0,841.89 L 0,841.89 0,0 Z" />
    </clipPath>
    <clipPath
       id="clipPath4353"
       clipPathUnits="userSpaceOnUse">
      <path
         inkscape:connector-curvature="0"
         id="path4355"
         d="m 0,0 595.276,0 0,841.89 L 0,841.89 0,0 Z" />
    </clipPath>
    <clipPath
       id="clipPath4371"
       clipPathUnits="userSpaceOnUse">
      <path
         inkscape:connector-curvature="0"
         id="path4373"
         d="m 0,0 595.276,0 0,841.89 L 0,841.89 0,0 Z" />
    </clipPath>
  </defs>
  <sodipodi:namedview
     id="base"
     pagecolor="#ffffff"
     bordercolor="#666666"
     borderopacity="1.0"
     inkscape:pageopacity="0.0"
     inkscape:pageshadow="2"
     inkscape:zoom="1"
     inkscape:cx="38.814458"
     inkscape:cy="152.51869"
     inkscape:document-units="px"
     inkscape:current-layer="g4163"
     showgrid="false"
     inkscape:window-width="1280"
     inkscape:window-height="751"
     inkscape:window-x="0"
     inkscape:window-y="1"
     inkscape:window-maximized="1"
     fit-margin-top="3"
     fit-margin-left="3"
     fit-margin-right="3"
     fit-margin-bottom="3"
     units="px" />
  <metadata
     id="metadata7">
    <rdf:RDF>
      <cc:Work
         rdf:about="">
        <dc:format>image/svg+xml</dc:format>
        <dc:type
           rdf:resource="http://purl.org/dc/dcmitype/StillImage" />
        <dc:title></dc:title>
      </cc:Work>
    </rdf:RDF>
  </metadata>
  <g
     inkscape:label="Layer 1"
     inkscape:groupmode="layer"
     id="layer1"
     transform="translate(-254.82995,-884.53632)">
    <g
       transform="matrix(1.25,0,0,-1.25,-669.90402,1058.5435)"
       inkscape:label="ETO_Front cover with full logo against black"
       id="g4163">
      <g
         id="g4167"
         transform="translate(536.26978,-302.56416)"
         inkscape:export-xdpi="90"
         inkscape:export-ydpi="90">
        <g
           clip-path="url(#clipPath4171)"
           id="g4169">
          <g
             transform="translate(349.7845,408.5604)"
             id="g4175">
            <path
               inkscape:connector-curvature="0"
               id="path4177"
               style="fill:#6ea9db;fill-opacity:1;fill-rule:nonzero;stroke:none"
               d="m 0,0 c 0,-15.157 -12.288,-27.445 -27.445,-27.445 -15.158,0 -27.445,12.288 -27.445,27.445 0,15.158 12.287,27.444 27.445,27.444 C -12.288,27.444 0,15.158 0,0" />
          </g>
          <g
             transform="translate(322.129,392.6722)"
             id="g4179">
            <path
               inkscape:connector-curvature="0"
               id="path4181"
               style="fill:#fddd00;fill-opacity:1;fill-rule:nonzero;stroke:none"
               d="m 0,0 c 0.189,-3.195 0.189,-3.195 0.229,-4.834 0.032,-1.374 0.171,-5.483 0.228,-7.093 l 0,11.845 L -1.423,0.75 0,0 Z" />
          </g>
          <g
             transform="translate(322.5861,392.59)"
             id="g4183">
            <path
               inkscape:connector-curvature="0"
               id="path4185"
               style="fill:#fddd00;fill-opacity:1;fill-rule:nonzero;stroke:none"
               d="m 0,0 0,-11.845 c 0.056,1.61 0.196,5.72 0.229,7.094 0.037,1.615 0.228,4.36 0.228,4.36 L 1.88,0.832 0,0 Z" />
          </g>
          <g
             transform="translate(324.0316,391.0833)"
             id="g4187">
            <path
               inkscape:connector-curvature="0"
               id="path4189"
               style="fill:#fddd00;fill-opacity:1;fill-rule:nonzero;stroke:none"
               d="m 0,0 1.193,1.194 c 1.048,1.048 1.048,2.744 0,3.792 L -1.896,1.896 0,0 Z" />
          </g>
          <g
             transform="translate(333.0934,436.4496)"
             id="g4191">
            <path
               inkscape:connector-curvature="0"
               id="path4193"
               style="fill:#fddd00;fill-opacity:1;fill-rule:nonzero;stroke:none"
               d="m 0,0 c -0.808,-1.112 -2.542,-3.724 -1.584,-5.737 0.923,-1.933 1.702,-2.469 2.063,-2.626 0.333,0.19 1.052,0.819 1.743,2.839 C 2.946,-3.411 0.925,-1.011 0,0" />
          </g>
          <g
             transform="translate(324.6552,419.7726)"
             id="g4195">
            <path
               inkscape:connector-curvature="0"
               id="path4197"
               style="fill:#fddd00;fill-opacity:1;fill-rule:nonzero;stroke:none"
               d="m 0,0 c 0.114,-1.838 0.573,-2.522 0.805,-2.756 0.327,0.047 1.102,0.322 2.299,1.715 C 4.359,0.417 3.51,2.976 3.095,4.084 2.093,3.449 -0.128,1.918 0,0" />
          </g>
          <g
             transform="translate(320.8781,425.2222)"
             id="g4199">
            <path
               inkscape:connector-curvature="0"
               id="path4201"
               style="fill:#fddd00;fill-opacity:1;fill-rule:nonzero;stroke:none"
               d="m 0,0 c 0.682,-1.685 1.318,-2.184 1.609,-2.334 0.299,0.148 0.939,0.642 1.628,2.323 C 3.965,1.752 2.371,3.896 1.636,4.806 0.902,3.901 -0.71,1.77 0,0" />
          </g>
          <g
             transform="translate(329.899,432.1469)"
             id="g4203">
            <path
               inkscape:connector-curvature="0"
               id="path4205"
               style="fill:#fddd00;fill-opacity:1;fill-rule:nonzero;stroke:none"
               d="m 0,0 c 0.17,0.461 0.338,1.498 -0.269,3.598 -0.688,2.392 -4.063,3.287 -5.552,3.625 -0.023,-1.527 0.056,-5.021 2.223,-6.249 1.754,-1.001 2.784,-1.145 3.314,-1.11 1.084,-1.282 1.79,-2.867 2.046,-4.527 0.594,-3.816 -2.178,-9.165 -5.705,-11.893 -1.574,-1.22 -2.11,-1.595 -2.179,-0.631 -0.201,2.845 -0.297,6.823 1.641,9.082 0.079,0.092 0.159,0.183 0.243,0.272 0.414,-0.08 1.21,-0.073 2.619,0.457 1.805,0.682 2.283,3.333 2.452,4.505 -1.18,-0.082 -3.864,-0.355 -4.679,-2.098 -0.515,-1.107 -0.655,-1.837 -0.666,-2.298 -1.055,-0.83 -2.237,-2.28 -2.853,-4.788 -0.01,0.041 -0.023,0.079 -0.033,0.119 -0.011,-0.04 -0.023,-0.078 -0.033,-0.119 -0.617,2.508 -1.798,3.958 -2.854,4.788 -0.01,0.461 -0.151,1.191 -0.666,2.298 -0.815,1.743 -3.498,2.016 -4.677,2.098 0.167,-1.172 0.645,-3.823 2.451,-4.505 1.408,-0.53 2.205,-0.537 2.619,-0.457 0.083,-0.089 0.163,-0.18 0.242,-0.272 1.939,-2.259 1.843,-6.237 1.641,-9.082 -0.068,-0.964 -0.604,-0.589 -2.178,0.631 -3.527,2.728 -6.3,8.077 -5.706,11.893 0.257,1.66 0.963,3.245 2.047,4.527 0.529,-0.035 1.559,0.109 3.313,1.11 2.168,1.228 2.246,4.722 2.223,6.249 -1.488,-0.338 -4.863,-1.233 -5.551,-3.625 -0.606,-2.1 -0.44,-3.137 -0.269,-3.598 -1.33,-1.367 -2.297,-2.943 -2.719,-4.665 -1.039,-4.176 2.178,-10.605 6.248,-13.566 2.39,-1.741 2.35,-2.805 2.419,-4.684 0.022,-0.026 0.047,-3.824 0.074,-4.356 l 1.376,0 0.155,0 -1.099,-1.099 1.895,-1.896 1.772,1.774 c 1.049,1.046 1.049,2.744 0,3.79 l -1.322,-1.324 c 0.018,1.297 0.033,3.093 0.049,3.111 0.07,1.879 0.029,2.943 2.42,4.684 4.07,2.961 7.286,9.39 6.247,13.566 C 2.297,-2.943 1.329,-1.367 0,0" />
          </g>
          <g
             transform="translate(311.9093,436.4496)"
             id="g4207">
            <path
               inkscape:connector-curvature="0"
               id="path4209"
               style="fill:#fddd00;fill-opacity:1;fill-rule:nonzero;stroke:none"
               d="m 0,0 c -0.926,-1.011 -2.946,-3.411 -2.223,-5.524 0.691,-2.02 1.41,-2.649 1.744,-2.839 0.361,0.157 1.139,0.693 2.062,2.626 C 2.541,-3.724 0.807,-1.112 0,0" />
          </g>
          <g
             transform="translate(319.5404,417.0165)"
             id="g4211">
            <path
               inkscape:connector-curvature="0"
               id="path4213"
               style="fill:#fddd00;fill-opacity:1;fill-rule:nonzero;stroke:none"
               d="M 0,0 C 0.234,0.234 0.692,0.918 0.806,2.756 0.934,4.674 -1.286,6.205 -2.289,6.84 -2.704,5.732 -3.553,3.173 -2.298,1.715 -1.101,0.322 -0.326,0.047 0,0" />
          </g>
          <g
             transform="translate(319.7765,397.9468)"
             id="g4215">
            <path
               inkscape:connector-curvature="0"
               id="path4217"
               style="fill:#fddd00;fill-opacity:1;fill-rule:nonzero;stroke:none"
               d="M 0,0 1.773,-1.774 3.668,0.123 0.001,3.791 C -1.047,2.744 -1.047,1.047 0,0" />
          </g>
          <g
             transform="translate(321.5499,399.9783)"
             id="g4219">
            <path
               inkscape:connector-curvature="0"
               id="path4221"
               style="fill:#cf202e;fill-opacity:1;fill-rule:nonzero;stroke:none"
               d="m 0,0 1.895,1.896 -3.668,3.668 c -1.048,-1.047 -1.048,-2.744 0,-3.79 L 0,0 Z" />
          </g>
          <g
             transform="translate(340.0375,423.371)"
             id="g4223">
            <path
               inkscape:connector-curvature="0"
               id="path4225"
               style="fill:#cf202e;fill-opacity:1;fill-rule:nonzero;stroke:none"
               d="M 0,0 C 0.191,0.234 0.54,0.908 0.461,2.603 0.376,4.371 -1.811,5.557 -2.792,6.032 -3.057,4.979 -3.576,2.546 -2.285,1.33 -1.047,0.18 -0.308,0.008 0,0" />
          </g>
          <g
             transform="translate(341.1722,418.7645)"
             id="g4227">
            <path
               inkscape:connector-curvature="0"
               id="path4229"
               style="fill:#cf202e;fill-opacity:1;fill-rule:nonzero;stroke:none"
               d="m 0,0 c -1.653,-1.06 -2.062,-1.838 -2.156,-2.185 0.216,-0.282 0.867,-0.866 2.798,-1.266 2.02,-0.414 3.973,1.719 4.795,2.678 C 4.326,-0.167 1.732,1.119 0,0" />
          </g>
          <g
             transform="translate(342.6293,423.23)"
             id="g4231">
            <path
               inkscape:connector-curvature="0"
               id="path4233"
               style="fill:#cf202e;fill-opacity:1;fill-rule:nonzero;stroke:none"
               d="m 0,0 c -0.773,-1.811 -0.672,-2.682 -0.554,-3.022 0.332,-0.119 1.203,-0.234 3.026,0.525 1.901,0.784 2.33,3.644 2.466,4.9 C 3.681,2.284 0.812,1.896 0,0" />
          </g>
          <g
             transform="translate(336.5966,418.7818)"
             id="g4235">
            <path
               inkscape:connector-curvature="0"
               id="path4237"
               style="fill:#cf202e;fill-opacity:1;fill-rule:nonzero;stroke:none"
               d="M 0,0 C 1.59,1.317 1.155,4.173 0.918,5.416 -0.25,4.93 -2.872,3.71 -3.089,1.662 -3.299,-0.296 -2.943,-1.095 -2.741,-1.39 -2.38,-1.398 -1.516,-1.251 0,0" />
          </g>
          <g
             transform="translate(345.3551,415.2995)"
             id="g4239">
            <path
               inkscape:connector-curvature="0"
               id="path4241"
               style="fill:#cf202e;fill-opacity:1;fill-rule:nonzero;stroke:none"
               d="M 0,0 C -1.671,-0.283 -2.255,-0.765 -2.452,-1.005 -2.375,-1.3 -2.051,-1.982 -0.66,-2.949 0.803,-3.957 3.065,-2.931 4.042,-2.443 3.365,-1.59 1.75,0.302 0,0" />
          </g>
          <g
             transform="translate(343.9843,411.2403)"
             id="g4243">
            <path
               inkscape:connector-curvature="0"
               id="path4245"
               style="fill:#cf202e;fill-opacity:1;fill-rule:nonzero;stroke:none"
               d="M 0,0 C -0.304,0.389 -0.455,0.305 -0.421,0.243 L -0.425,0.241 C -0.681,0.067 -1.216,-0.466 -1.677,-2.078 -2.158,-3.787 -0.458,-5.597 0.318,-6.364 0.765,-5.671 1.6,-4.276 1.61,-2.963 1.614,-2.541 1.534,-2.128 1.326,-1.75 0.796,-0.769 0.336,-0.263 0,0" />
          </g>
          <g
             transform="translate(343.5009,411.6762)"
             id="g4247">
            <path
               inkscape:connector-curvature="0"
               id="path4249"
               style="fill:#cf202e;fill-opacity:1;fill-rule:nonzero;stroke:none"
               d="m 0,0 c -0.756,0.997 -2.99,3.291 -5.378,3.965 -2.201,0.622 -3.136,0.636 -3.136,0.636 0,0 1.269,0.295 3.467,1.855 3.033,2.154 2.912,6.83 2.81,8.165 0.015,-0.068 0.03,-0.127 0.046,-0.174 0.334,-0.12 1.204,-0.234 3.026,0.524 1.902,0.786 2.332,3.645 2.466,4.902 -1.257,-0.121 -4.125,-0.508 -4.938,-2.404 -0.516,-1.211 -0.641,-1.998 -0.633,-2.492 -10e-4,0.006 -10e-4,0.009 -10e-4,0.009 0,0 -0.757,-6.425 -3.703,-8.193 -2.477,-1.485 -7.259,-2.428 -9.535,-4.266 -0.757,-0.611 -1.78,-1.713 -2.767,-2.953 l -3.668,-3.669 1.896,-1.896 1.604,1.605 c 0.032,0.024 0.065,0.051 0.098,0.08 0.439,0.404 0.903,1.169 0.993,1.333 2.309,4.25 4.774,6.915 9.282,6.915 C -5.324,3.942 -1.839,1.761 0,0" />
          </g>
          <g
             transform="translate(337.2897,413.3705)"
             id="g4251">
            <path
               inkscape:connector-curvature="0"
               id="path4253"
               style="fill:#cf202e;fill-opacity:1;fill-rule:nonzero;stroke:none"
               d="m 0,0 c -1.969,0.106 -2.75,-0.297 -3.032,-0.519 0.004,-0.353 0.204,-1.212 1.534,-2.656 1.402,-1.518 4.232,-0.926 5.457,-0.623 C 3.414,-2.657 2.054,-0.105 0,0" />
          </g>
          <g
             transform="translate(321.5568,396.1673)"
             id="g4255">
            <path
               inkscape:connector-curvature="0"
               id="path4257"
               style="fill:#cf202e;fill-opacity:1;fill-rule:nonzero;stroke:none"
               d="m 0,0 0.781,-0.781 c -0.311,-0.496 -0.609,-1 -0.9,-1.507 -0.193,-0.172 -0.392,-0.324 -0.578,-0.454 -1.579,0.011 -3.291,-0.021 -4.744,-0.309 -2.652,0.016 -8.828,-0.201 -10.726,-2.488 -2.442,-2.941 -2.575,-7.644 -2.575,-7.644 0,0 1.631,6.005 3.045,7.075 0.954,0.723 2.105,1.226 3.305,1.578 -0.032,-0.322 -0.132,-0.827 -0.409,-1.586 -0.576,-1.585 -2.997,-3.397 -2.997,-3.397 0,0 2.404,1.086 3.133,2.239 0.54,0.855 0.828,2.268 0.976,2.934 1.443,0.349 2.912,0.496 4.156,0.549 l -0.002,-10e-4 c -2.859,-1.73 -4.063,-4.648 -4.066,-8.18 -10e-4,-1.095 1.068,-2.125 1.068,-2.125 -0.257,0.563 -0.43,1.15 -0.491,1.771 -0.191,1.926 0.568,4.076 1.87,5.698 -0.757,-2.437 1.048,-4.474 2.855,-6.339 0.015,-0.365 0.047,-0.741 0.093,-1.13 0,0 0.133,-0.336 0.133,-0.295 -0.026,2.83 1.253,4.017 1.69,5.083 -0.009,-0.909 0.21,-1.946 0.759,-3.16 0.17,-0.374 0.392,-0.722 0.588,-1.088 0.026,0.01 0.045,0.021 0.064,0.032 -0.199,0.771 -0.457,1.524 -0.599,2.304 -0.424,2.3 0.264,3.867 1.264,5.253 0.352,0.405 0.653,0.759 0.963,1.048 0.831,-2.06 1.19,-4.274 -0.002,-7.086 -0.422,-1.007 -0.995,-1.944 -1.488,-2.916 0.03,-0.016 0.048,-0.036 0.073,-0.058 0.377,0.431 0.776,0.831 1.117,1.287 0.166,0.221 0.323,0.435 0.462,0.648 -0.157,-1.317 -0.258,-3.172 0.028,-4.202 0.107,-0.398 0.276,-0.781 0.409,-1.17 0.026,0.009 0.052,0.019 0.069,0.022 -0.074,0.795 -0.213,1.582 -0.232,2.373 -0.017,0.677 0.315,3.115 0.555,4.413 1.077,2.246 0.971,4.16 0.409,5.971 -0.043,0.143 -0.361,0.931 -0.395,1.083 0.651,1.091 1.443,1.896 2.206,2.688 l 0.029,-0.029 1.772,1.774 c 1.048,1.046 1.048,2.744 0,3.791 L 0,0 Z m -6.292,-11.748 c -1.576,1.871 -2.724,3.842 -1.163,5.93 1.282,1.729 2.73,1.849 4.936,1.829 -2.011,-2.017 -3.606,-4.312 -3.773,-7.759" />
          </g>
          <g
             transform="translate(308.0817,418.7818)"
             id="g4259">
            <path
               inkscape:connector-curvature="0"
               id="path4261"
               style="fill:#069948;fill-opacity:1;fill-rule:nonzero;stroke:none"
               d="M 0,0 C 1.517,-1.251 2.381,-1.398 2.742,-1.39 2.944,-1.095 3.3,-0.296 3.09,1.662 2.873,3.71 0.25,4.93 -0.917,5.416 -1.154,4.173 -1.59,1.317 0,0" />
          </g>
          <g
             transform="translate(301.12,411.4816)"
             id="g4263">
            <path
               inkscape:connector-curvature="0"
               id="path4265"
               style="fill:#069948;fill-opacity:1;fill-rule:nonzero;stroke:none"
               d="m 0,0 c 0,0 -0.003,0.001 -0.004,0.002 0.034,0.061 -0.117,0.146 -0.421,-0.243 -0.336,-0.263 -0.797,-0.769 -1.327,-1.75 -0.207,-0.378 -0.287,-0.791 -0.284,-1.213 0.011,-1.313 0.845,-2.709 1.293,-3.402 0.775,0.767 2.476,2.578 1.995,4.287 C 0.79,-0.707 0.256,-0.174 0,0" />
          </g>
          <g
             transform="translate(323.4525,398.0766)"
             id="g4267">
            <path
               inkscape:connector-curvature="0"
               id="path4269"
               style="fill:#069948;fill-opacity:1;fill-rule:nonzero;stroke:none"
               d="m 0,0 1.772,1.772 c 1.048,1.047 1.048,2.744 0,3.791 L -1.896,1.895 0,0 Z" />
          </g>
          <g
             transform="translate(306.9271,424.7012)"
             id="g4271">
            <path
               inkscape:connector-curvature="0"
               id="path4273"
               style="fill:#069948;fill-opacity:1;fill-rule:nonzero;stroke:none"
               d="M 0,0 C 1.291,1.216 0.771,3.649 0.505,4.702 -0.475,4.227 -2.663,3.04 -2.747,1.273 -2.826,-0.422 -2.477,-1.096 -2.286,-1.33 -1.979,-1.323 -1.239,-1.15 0,0" />
          </g>
          <g
             transform="translate(298.0697,417.9915)"
             id="g4275">
            <path
               inkscape:connector-curvature="0"
               id="path4277"
               style="fill:#069948;fill-opacity:1;fill-rule:nonzero;stroke:none"
               d="m 0,0 c 0.821,-0.959 2.775,-3.092 4.795,-2.678 1.93,0.4 2.582,0.984 2.798,1.266 C 7.499,-1.065 7.089,-0.287 5.437,0.773 3.705,1.892 1.11,0.606 0,0" />
          </g>
          <g
             transform="translate(297.1115,425.6332)"
             id="g4279">
            <path
               inkscape:connector-curvature="0"
               id="path4281"
               style="fill:#069948;fill-opacity:1;fill-rule:nonzero;stroke:none"
               d="M 0,0 C 0.136,-1.256 0.565,-4.116 2.466,-4.9 4.289,-5.659 5.159,-5.545 5.493,-5.426 5.609,-5.085 5.711,-4.214 4.938,-2.403 4.125,-0.507 1.256,-0.119 0,0" />
          </g>
          <g
             transform="translate(301.776,414.2944)"
             id="g4283">
            <path
               inkscape:connector-curvature="0"
               id="path4285"
               style="fill:#069948;fill-opacity:1;fill-rule:nonzero;stroke:none"
               d="m 0,0 c -0.198,0.24 -0.782,0.722 -2.451,1.005 -1.75,0.302 -3.366,-1.59 -4.043,-2.443 0.976,-0.488 3.238,-1.513 4.701,-0.506 C -0.403,-0.977 -0.078,-0.295 0,0" />
          </g>
          <g
             transform="translate(320.3737,404.9589)"
             id="g4287">
            <path
               inkscape:connector-curvature="0"
               id="path4289"
               style="fill:#069948;fill-opacity:1;fill-rule:nonzero;stroke:none"
               d="m 0,0 1.176,-1.176 1.895,1.895 c 0,0 -4.453,6.664 -6.758,8.525 -2.276,1.839 -7.058,2.781 -9.533,4.267 -2.948,1.767 -3.705,8.192 -3.705,8.192 0,0 0,-0.003 -10e-4,-0.008 0.009,0.493 -0.117,1.281 -0.633,2.491 -0.812,1.896 -3.681,2.283 -4.939,2.404 0.137,-1.257 0.566,-4.116 2.468,-4.901 1.822,-0.758 2.692,-0.644 3.025,-0.525 0.016,0.047 0.032,0.106 0.046,0.175 -0.103,-1.336 -0.222,-6.012 2.809,-8.166 2.199,-1.56 3.467,-1.855 3.467,-1.855 0,0 -0.933,-0.014 -3.135,-0.636 -2.388,-0.674 -4.621,-2.968 -5.378,-3.965 1.84,1.761 5.323,3.943 8.071,3.943 4.681,0 7.159,-2.874 9.548,-7.413 0.649,-1.233 0.866,-2.536 0.98,-2.649 L 0,0 Z" />
          </g>
          <g
             transform="translate(307.3878,413.3705)"
             id="g4291">
            <path
               inkscape:connector-curvature="0"
               id="path4293"
               style="fill:#069948;fill-opacity:1;fill-rule:nonzero;stroke:none"
               d="m 0,0 c -2.054,-0.105 -3.413,-2.657 -3.958,-3.798 1.225,-0.303 4.055,-0.895 5.457,0.623 1.33,1.444 1.529,2.303 1.534,2.656 C 2.751,-0.297 1.971,0.106 0,0" />
          </g>
          <g
             transform="translate(342.1874,382.9839)"
             id="g4295">
            <path
               inkscape:connector-curvature="0"
               id="path4297"
               style="fill:#069948;fill-opacity:1;fill-rule:nonzero;stroke:none"
               d="m 0,0 c 0,0 -0.134,4.703 -2.575,7.645 -1.866,2.248 -7.868,2.496 -10.59,2.487 -1.453,0.288 -3.161,0.32 -4.74,0.31 l -4.505,4.508 c -1.048,-1.048 -1.048,-2.745 -0.001,-3.792 l 3.722,-2.924 c 0.051,-0.081 0.098,-0.162 0.147,-0.245 -0.034,-0.152 -0.072,-0.301 -0.116,-0.444 -0.561,-1.81 -0.668,-3.724 0.408,-5.971 0.24,-1.297 0.572,-3.735 0.556,-4.413 -0.02,-0.79 -0.159,-1.578 -0.233,-2.372 0.018,-0.003 0.044,-0.014 0.07,-0.023 0.133,0.389 0.302,0.772 0.409,1.17 0.286,1.03 0.186,2.885 0.028,4.202 0.139,-0.213 0.295,-0.427 0.46,-0.648 0.343,-0.455 0.742,-0.856 1.118,-1.287 0.025,0.023 0.045,0.042 0.073,0.058 -0.493,0.972 -1.066,1.909 -1.487,2.916 -1.192,2.813 -0.833,5.027 -0.002,7.086 0.31,-0.289 0.61,-0.642 0.965,-1.047 0.998,-1.386 1.686,-2.953 1.262,-5.254 -0.142,-0.78 -0.399,-1.533 -0.599,-2.304 0.019,-0.011 0.038,-0.022 0.063,-0.031 0.195,0.365 0.419,0.714 0.589,1.087 0.549,1.214 0.769,2.251 0.76,3.16 0.437,-1.065 1.716,-2.253 1.689,-5.083 0,-0.041 0.133,0.296 0.133,0.296 0.047,0.388 0.078,0.764 0.093,1.129 1.808,1.865 3.612,3.902 2.854,6.34 1.303,-1.622 2.062,-3.773 1.871,-5.699 -0.06,-0.621 -0.234,-1.208 -0.491,-1.77 0,0 1.07,1.029 1.068,2.125 -0.004,3.527 -1.204,6.444 -4.059,8.174 1.213,-0.058 2.621,-0.208 4.006,-0.543 0.148,-0.666 0.437,-2.078 0.977,-2.933 0.728,-1.154 3.132,-2.24 3.132,-2.24 0,0 -2.42,1.812 -2.996,3.397 C -6.219,7.826 -6.319,8.332 -6.35,8.654 -5.151,8.303 -4,7.799 -3.044,7.075 -1.632,6.005 0,0 0,0 m -12.311,1.435 c -0.167,3.448 -1.762,5.742 -3.772,7.759 2.206,0.02 3.654,-0.099 4.936,-1.828 1.562,-2.089 0.414,-4.059 -1.164,-5.931" />
          </g>
        </g>
      </g>
      <g
         id="g4367"
         transform="translate(536.26978,-302.56416)"
         inkscape:export-xdpi="90"
         inkscape:export-ydpi="90">
        <g
           clip-path="url(#clipPath4371)"
           id="g4369">
          <g
             id="g4427"
             transform="matrix(1.2878666,0,0,1.4170159,-89.567715,-138.3299)">
            <g
               id="g4299"
               transform="translate(246.5299,331.65968)">
              <path
                 d="m 0,0 0.991,0 0,-5.441 3.185,0 0,-0.91 L 0,-6.351 0,0 Z"
                 style="fill:#ffffff;fill-opacity:1;fill-rule:nonzero;stroke:none"
                 id="path4301"
                 inkscape:connector-curvature="0" />
            </g>
            <g
               id="g4303"
               transform="translate(255.1642,326.72744)">
              <path
                 d="m 0,0 -2.479,0 -0.504,-1.418 -1.047,0 2.378,6.35 0.825,0 2.378,-6.35 -1.047,0 L 0,0 Z m -0.285,0.856 -0.945,2.774 -0.019,0 -0.945,-2.774 1.909,0 z"
                 style="fill:#ffffff;fill-opacity:1;fill-rule:nonzero;stroke:none"
                 id="path4305"
                 inkscape:connector-curvature="0" />
            </g>
            <g
               id="g4307"
               transform="translate(257.5929,331.65968)">
              <path
                 d="m 0,0 0.936,0 2.956,-4.513 0.018,0 0,4.513 0.991,0 0,-6.351 -0.936,0 -2.955,4.513 -0.019,0 0,-4.513 L 0,-6.351 0,0 Z"
                 style="fill:#ffffff;fill-opacity:1;fill-rule:nonzero;stroke:none"
                 id="path4309"
                 inkscape:connector-curvature="0" />
            </g>
            <g
               id="g4311">
              <g
                 id="g4313"
                 clip-path="url(#clipPath4315)">
                <g
                   id="g4319"
                   transform="translate(264.0507,331.6597)">
                  <path
                     d="M 0,0 2.286,0 C 3.148,0 3.855,-0.375 4.277,-1.071 4.598,-1.605 4.626,-1.847 4.626,-3.175 4.626,-4.603 4.552,-4.852 4.259,-5.298 3.873,-5.887 3.194,-6.351 2.221,-6.351 L 0,-6.351 0,0 Z m 0.991,-5.441 1.185,0 c 0.559,0 0.954,0.187 1.211,0.553 0.22,0.321 0.248,0.499 0.248,1.677 0,1.142 -0.028,1.418 -0.294,1.765 -0.303,0.402 -0.633,0.536 -1.165,0.536 l -1.185,0 0,-4.531 z"
                     style="fill:#ffffff;fill-opacity:1;fill-rule:nonzero;stroke:none"
                     id="path4321"
                     inkscape:connector-curvature="0" />
                </g>
                <g
                   id="g4323"
                   transform="translate(272.4615,330.5716)">
                  <path
                     d="M 0,0 C 0.312,0.553 1.019,1.142 2.047,1.142 3.075,1.142 3.782,0.553 4.094,0 4.305,-0.375 4.378,-0.562 4.378,-2.087 4.378,-3.613 4.305,-3.8 4.094,-4.174 3.782,-4.727 3.075,-5.316 2.047,-5.316 1.019,-5.316 0.312,-4.727 0,-4.174 -0.211,-3.8 -0.284,-3.613 -0.284,-2.087 -0.284,-0.562 -0.211,-0.375 0,0 m 1.038,-3.889 c 0.201,-0.25 0.541,-0.464 1.009,-0.464 0.468,0 0.808,0.214 1.009,0.464 0.257,0.321 0.331,0.499 0.331,1.802 0,1.302 -0.074,1.48 -0.331,1.801 -0.201,0.25 -0.541,0.464 -1.009,0.464 -0.468,0 -0.808,-0.214 -1.009,-0.464 -0.257,-0.321 -0.331,-0.499 -0.331,-1.801 0,-1.303 0.074,-1.481 0.331,-1.802"
                     style="fill:#ffffff;fill-opacity:1;fill-rule:nonzero;stroke:none"
                     id="path4325"
                     inkscape:connector-curvature="0" />
                </g>
              </g>
            </g>
            <g
               id="g4327"
               transform="translate(278.1766,331.65968)">
              <path
                 d="m 0,0 4.176,0 0,-0.91 -3.185,0 0,-1.873 2.717,0 0,-0.856 -2.717,0 0,-2.712 L 0,-6.351 0,0 Z"
                 style="fill:#ffffff;fill-opacity:1;fill-rule:nonzero;stroke:none"
                 id="path4329"
                 inkscape:connector-curvature="0" />
            </g>
            <g
               id="g4331">
              <g
                 id="g4333"
                 clip-path="url(#clipPath4335)">
                <g
                   id="g4339"
                   transform="translate(285.734,330.5716)">
                  <path
                     d="M 0,0 C 0.312,0.553 1.019,1.142 2.047,1.142 3.075,1.142 3.782,0.553 4.094,0 4.305,-0.375 4.378,-0.562 4.378,-2.087 4.378,-3.613 4.305,-3.8 4.094,-4.174 3.782,-4.727 3.075,-5.316 2.047,-5.316 1.019,-5.316 0.312,-4.727 0,-4.174 -0.211,-3.8 -0.284,-3.613 -0.284,-2.087 -0.284,-0.562 -0.211,-0.375 0,0 m 1.038,-3.889 c 0.201,-0.25 0.541,-0.464 1.009,-0.464 0.468,0 0.808,0.214 1.009,0.464 0.257,0.321 0.331,0.499 0.331,1.802 0,1.302 -0.074,1.48 -0.331,1.801 -0.201,0.25 -0.541,0.464 -1.009,0.464 -0.468,0 -0.808,-0.214 -1.009,-0.464 -0.257,-0.321 -0.331,-0.499 -0.331,-1.801 0,-1.303 0.074,-1.481 0.331,-1.802"
                     style="fill:#ffffff;fill-opacity:1;fill-rule:nonzero;stroke:none"
                     id="path4341"
                     inkscape:connector-curvature="0" />
                </g>
                <g
                   id="g4343"
                   transform="translate(291.4491,331.6597)">
                  <path
                     d="m 0,0 2.552,0 c 0.55,0 0.981,-0.125 1.331,-0.419 0.366,-0.303 0.651,-0.785 0.651,-1.356 0,-0.82 -0.477,-1.489 -1.267,-1.757 l 1.514,-2.819 -1.174,0 -1.349,2.712 -1.267,0 0,-2.712 L 0,-6.351 0,0 Z m 0.991,-2.783 1.496,0 c 0.743,0 1.111,0.473 1.111,1.008 0,0.329 -0.129,0.58 -0.331,0.722 -0.183,0.134 -0.385,0.196 -0.725,0.196 l -1.551,0 0,-1.926 z"
                     style="fill:#ffffff;fill-opacity:1;fill-rule:nonzero;stroke:none"
                     id="path4345"
                     inkscape:connector-curvature="0" />
                </g>
              </g>
            </g>
            <path
               d="m 833.49778,-41.255157 0.991,0 0,6.351 -0.991,0 0,-6.351 z"
               style="fill:#ffffff;fill-opacity:1;fill-rule:nonzero;stroke:none"
               id="path4347"
               inkscape:connector-curvature="0"
               transform="translate(-536.26978,366.56416)" />
            <g
               id="g4349">
              <g
                 id="g4351"
                 clip-path="url(#clipPath4353)">
                <g
                   id="g4357"
                   transform="translate(301.8976,328.8056)">
                  <path
                     d="m 0,0 2.322,0 0,-1.293 c 0,-1.258 -1.028,-2.257 -2.332,-2.257 -1.028,0 -1.734,0.589 -2.046,1.142 -0.212,0.374 -0.285,0.561 -0.285,2.087 0,1.524 0.073,1.712 0.285,2.087 0.312,0.553 1.018,1.142 2.046,1.142 1.24,0 2.093,-0.848 2.295,-1.882 l -1.046,0 C 1.083,1.516 0.615,1.944 -0.01,1.944 -0.478,1.944 -0.818,1.73 -1.019,1.48 -1.276,1.159 -1.35,0.981 -1.35,-0.321 c 0,-1.303 0.074,-1.481 0.331,-1.802 0.201,-0.25 0.541,-0.464 1.009,-0.464 0.753,0 1.341,0.553 1.341,1.347 l 0,0.33 L 0,-0.91 0,0 Z"
                     style="fill:#ffffff;fill-opacity:1;fill-rule:nonzero;stroke:none"
                     id="path4359"
                     inkscape:connector-curvature="0" />
                </g>
              </g>
            </g>
            <path
               d="m 841.82578,-41.255157 0.991,0 0,6.351 -0.991,0 0,-6.351 z"
               style="fill:#ffffff;fill-opacity:1;fill-rule:nonzero;stroke:none"
               id="path4361"
               inkscape:connector-curvature="0"
               transform="translate(-536.26978,366.56416)" />
            <g
               id="g4363"
               transform="translate(308.1056,331.65968)">
              <path
                 d="m 0,0 0.936,0 2.956,-4.513 0.018,0 0,4.513 0.992,0 0,-6.351 -0.937,0 -2.955,4.513 -0.019,0 0,-4.513 L 0,-6.351 0,0 Z"
                 style="fill:#ffffff;fill-opacity:1;fill-rule:nonzero;stroke:none"
                 id="path4365"
                 inkscape:connector-curvature="0" />
            </g>
            <g
               id="g4375"
               transform="translate(314.6456,326.8517)">
              <path
                 d="m 0,0 c 0.496,-0.383 1.157,-0.633 1.854,-0.633 0.808,0 1.294,0.357 1.294,0.883 0,0.446 -0.266,0.785 -0.853,0.856 -0.294,0.036 -0.523,0.072 -0.863,0.116 -1.129,0.152 -1.734,0.865 -1.734,1.784 0,1.088 0.78,1.856 2.129,1.856 0.808,0 1.523,-0.277 2.12,-0.661 L 3.396,3.408 C 2.919,3.702 2.36,3.898 1.781,3.898 1.175,3.898 0.688,3.595 0.688,2.988 0.688,2.632 0.955,2.274 1.616,2.176 1.79,2.15 2.038,2.115 2.35,2.078 3.571,1.936 4.14,1.115 4.14,0.25 c 0,-1.168 -0.89,-1.846 -2.295,-1.846 -0.963,0 -1.808,0.285 -2.496,0.874 L 0,0 Z"
                 style="fill:#ffffff;fill-opacity:1;fill-rule:nonzero;stroke:none"
                 id="path4377"
                 inkscape:connector-curvature="0" />
            </g>
          </g>
          <g
             transform="translate(313.4874,346.6597)"
             id="g4379">
            <path
               inkscape:connector-curvature="0"
               id="path4381"
               style="fill:#ffffff;fill-opacity:1;fill-rule:nonzero;stroke:none"
               d="m 0,0 c -0.099,-1.691 -0.24,-3.052 -0.423,-4.078 -0.182,-1.029 -0.49,-1.841 -0.92,-2.438 -0.432,-0.597 -1.013,-1.029 -1.742,-1.295 -0.729,-0.265 -1.708,-0.481 -2.935,-0.645 -0.929,-0.101 -1.609,0.106 -2.039,0.621 -0.432,0.514 -0.631,1.268 -0.598,2.262 l 0.598,11.691 c 0.032,1.161 0.165,2.256 0.397,3.284 0.232,1.028 0.573,1.916 1.021,2.661 0.446,0.747 1.019,1.335 1.715,1.767 0.697,0.43 1.542,0.645 2.538,0.645 1.061,0 1.857,-0.29 2.388,-0.869 0.53,-0.581 0.762,-1.485 0.696,-2.711 L 0,0 Z M 6.667,14.651 C 6.135,15.197 5.522,15.612 4.825,15.893 4.129,16.176 3.383,16.317 2.586,16.317 2.42,16.317 2.204,16.307 1.939,16.292 1.674,16.274 1.243,16.218 0.646,16.117 l -7.562,-1.441 c -1.193,-0.267 -2.321,-0.714 -3.382,-1.343 -1.062,-0.631 -1.991,-1.386 -2.786,-2.265 C -13.88,10.19 -14.51,9.236 -14.973,8.209 -15.439,7.18 -15.688,6.135 -15.72,5.073 l -0.598,-10.944 c 0,-1.79 0.39,-3.1 1.17,-3.93 0.779,-0.828 2.014,-1.242 3.706,-1.242 0.364,0.034 0.895,0.115 1.592,0.248 0.696,0.132 1.409,0.331 2.138,0.597 1.062,0.464 2.041,0.82 2.936,1.068 0.894,0.251 1.907,0.407 3.034,0.475 0.365,0 0.753,0.015 1.17,0.05 0.413,0.031 0.787,0.016 1.119,-0.05 2.42,0.066 4.153,0.695 5.199,1.889 1.042,1.193 1.632,2.703 1.764,4.528 L 8.208,10 c 0.066,0.993 -0.042,1.88 -0.323,2.66 -0.282,0.78 -0.69,1.443 -1.218,1.991" />
          </g>
          <g
             transform="translate(228.8094,353.576)"
             id="g4383">
            <path
               inkscape:connector-curvature="0"
               id="path4385"
               style="fill:#ffffff;fill-opacity:1;fill-rule:nonzero;stroke:none"
               d="M 0,0 C 0.621,0.033 1.226,0.134 1.813,0.302 2.401,0.47 2.947,0.713 3.45,1.033 3.954,1.351 4.357,1.795 4.659,2.368 l -1.46,6.8 C 2.728,8.462 1.964,8.026 0.906,7.857 -0.151,7.688 -1.25,7.622 -2.392,7.655 c -1.242,0.033 -3.366,0.118 -6.372,0.253 -3.004,0.134 -7.21,0.386 -12.617,0.756 0,1.545 0.378,2.804 1.133,3.777 0.756,0.974 1.605,1.662 2.544,2.065 0.94,0.403 1.847,0.655 2.72,0.756 0.873,0.1 1.863,0.151 2.972,0.151 L -1.285,15.01 c 0.706,0 1.36,0.008 1.964,0.025 0.605,0.017 1.152,0.076 1.638,0.177 0.486,0.1 0.924,0.277 1.31,0.528 0.386,0.252 0.713,0.629 0.982,1.135 L 3.147,24.278 C 2.947,23.841 2.695,23.505 2.393,23.27 2.09,23.035 1.755,22.867 1.385,22.767 1.016,22.666 0.614,22.607 0.177,22.59 -0.26,22.573 -0.747,22.566 -1.285,22.566 l -13.347,0.502 c -2.517,0 -4.515,-0.923 -5.993,-2.769 -1.511,-1.881 -2.267,-4.164 -2.267,-6.85 l 0.252,-4.835 c 0,-1.109 0.018,-2.192 0.051,-3.249 0.033,-1.058 0.118,-2.099 0.252,-3.123 0.134,-1.026 0.327,-2.075 0.579,-3.148 0.251,-1.075 0.596,-2.201 1.032,-3.376 0.705,-1.879 1.746,-3.517 3.123,-4.91 1.377,-1.393 2.946,-2.561 4.71,-3.501 1.761,-0.941 3.643,-1.637 5.64,-2.09 1.999,-0.453 3.971,-0.678 5.918,-0.678 0.639,0 1.251,0.007 1.838,0.024 0.589,0.016 1.142,0.083 1.663,0.201 0.522,0.118 0.99,0.31 1.41,0.58 0.421,0.268 0.764,0.636 1.033,1.107 L 2.947,-5.993 C 2.779,-6.464 2.476,-6.833 2.041,-7.102 1.604,-7.37 1.116,-7.563 0.579,-7.681 0.042,-7.799 -0.495,-7.866 -1.033,-7.881 -1.569,-7.9 -2.022,-7.906 -2.392,-7.906 c -2.62,0 -5.079,0.25 -7.379,0.754 -2.299,0.504 -4.299,1.183 -5.994,2.04 -1.695,0.856 -3.029,1.82 -4.004,2.896 -0.974,1.074 -1.443,2.165 -1.411,3.275 L -1.688,0 C -1.184,-0.033 -0.621,-0.033 0,0" />
          </g>
          <g
             transform="translate(339.8866,350.4579)"
             id="g4387">
            <path
               inkscape:connector-curvature="0"
               id="path4389"
               style="fill:#ffffff;fill-opacity:1;fill-rule:nonzero;stroke:none"
               d="m 0,0 c -0.098,-1.675 -0.238,-3.022 -0.418,-4.038 -0.181,-1.018 -0.485,-1.822 -0.911,-2.413 -0.426,-0.591 -1.003,-1.019 -1.723,-1.281 -0.723,-0.263 -1.691,-0.476 -2.905,-0.639 -0.92,-0.099 -1.593,0.105 -2.02,0.615 -0.426,0.509 -0.624,1.256 -0.591,2.239 l 0.591,11.573 c 0.032,1.148 0.164,2.232 0.394,3.251 0.229,1.016 0.567,1.895 1.01,2.634 0.443,0.738 1.009,1.321 1.699,1.748 0.689,0.426 1.527,0.639 2.511,0.639 1.05,0 1.838,-0.286 2.363,-0.86 0.525,-0.576 0.755,-1.471 0.689,-2.685 L 0,0 Z m 6.6,14.502 c -0.527,0.54 -1.133,0.951 -1.822,1.229 -0.69,0.28 -1.429,0.419 -2.217,0.419 -0.165,0 -0.377,-0.008 -0.64,-0.024 -0.264,-0.018 -0.689,-0.073 -1.28,-0.174 l -7.485,-1.426 c -1.182,-0.264 -2.298,-0.706 -3.348,-1.329 -1.052,-0.624 -1.97,-1.371 -2.758,-2.241 -0.788,-0.87 -1.412,-1.815 -1.871,-2.831 -0.461,-1.019 -0.707,-2.052 -0.738,-3.104 l -0.592,-10.833 0,-22.245 c 0,-1.049 0.378,-1.949 1.129,-2.701 0.754,-0.749 1.657,-1.125 2.71,-1.125 l 4.066,0 -0.249,21.509 c 0.286,0.085 0.573,0.173 0.863,0.279 1.05,0.458 2.019,0.812 2.905,1.057 0.886,0.248 1.887,0.403 3.003,0.47 0.361,0 0.747,0.015 1.159,0.049 0.409,0.032 0.778,0.015 1.107,-0.049 2.396,0.064 4.112,0.688 5.147,1.87 1.031,1.181 1.615,2.676 1.746,4.483 L 8.126,9.897 c 0.065,0.984 -0.042,1.862 -0.32,2.635 -0.278,0.77 -0.683,1.427 -1.206,1.97" />
          </g>
          <g
             transform="translate(359.4752,346.0209)"
             id="g4391">
            <path
               inkscape:connector-curvature="0"
               id="path4393"
               style="fill:#ffffff;fill-opacity:1;fill-rule:nonzero;stroke:none"
               d="m 0,0 -0.025,0 0,4.387 0,3.728 -0.03,0 0,0.362 c 0,6.276 -1.353,8.487 -1.724,8.976 1.688,1.102 2.794,2.932 2.794,5.097 0,3.557 -2.985,6.259 -6.634,6.259 -3.648,0 -6.608,-2.702 -6.608,-6.259 0,-2.583 1.559,-4.689 3.809,-5.651 0.741,-0.909 1.804,-2.942 1.975,-7.217 l 0.025,0 0,-4.387 0,-1.053 0.029,0 0,-3.036 c 0,-7.271 1.818,-9.09 1.818,-9.09 l 7.273,0 c 0,0 -2.436,1.223 -2.702,7.884 m -5.619,26.013 c 1.785,0 3.239,-1.431 3.239,-3.487 0,-2.01 -1.454,-3.396 -3.239,-3.396 -1.787,0 -3.241,1.386 -3.241,3.396 0,2.056 1.454,3.487 3.241,3.487" />
          </g>
          <g
             transform="translate(293.3824,346.0209)"
             id="g4395">
            <path
               inkscape:connector-curvature="0"
               id="path4397"
               style="fill:#ffffff;fill-opacity:1;fill-rule:nonzero;stroke:none"
               d="m 0,0 -0.026,0 0,4.387 0,3.727 -0.029,0 0,0.363 c 0,6.593 -1.495,8.702 -1.773,9.039 1.633,1.108 2.698,2.91 2.698,5.033 0,3.558 -2.985,6.26 -6.634,6.26 -3.649,0 -6.608,-2.702 -6.608,-6.26 0,-2.663 1.659,-4.822 4.025,-5.738 0.736,-0.951 1.739,-2.99 1.904,-7.129 l 0.025,0 0,-4.387 0,-1.053 0.03,0 0,-3.036 c 0,-7.271 1.818,-9.091 1.818,-9.091 l 7.272,0 c 0,0 -2.436,1.224 -2.702,7.885 m -5.764,26.013 c 1.785,0 3.24,-1.431 3.24,-3.487 0,-2.011 -1.455,-3.396 -3.24,-3.396 -1.786,0 -3.24,1.385 -3.24,3.396 0,2.056 1.454,3.487 3.24,3.487" />
          </g>
          <g
             transform="translate(286.0319,338.1364)"
             id="g4399">
            <path
               inkscape:connector-curvature="0"
               id="path4401"
               style="fill:#ffffff;fill-opacity:1;fill-rule:nonzero;stroke:none"
               d="m 0,0 c 0,0 -2.145,1.154 -2.5,7.308 l 0,8.07 c 0,6.136 -3.791,10.244 -9.476,10.244 -1.891,0 -3.583,-0.594 -5.009,-1.585 l 0,4.106 c 0,7.273 -1.818,9.091 -1.818,9.091 l -7.272,0 c 0,0 2.437,-1.223 2.703,-7.883 l 0.025,0 0,-4.388 c 0,-4.526 0.038,-9.052 0.043,-13.578 10e-4,-0.471 0.003,-0.944 0,-1.415 l -0.026,0 0,-0.88 c 0,-0.541 0.009,-1.049 0.026,-1.531 l 0,-0.756 0.036,0 C -22.964,1.429 -21.631,0 -21.631,0 l 6.8,0 c 0,0 -2.041,1.1 -2.47,6.873 l 0,8.505 c 0,2.617 1.851,4.421 4.513,4.421 3.881,0 4.333,-3.067 4.333,-4.421 l 0,-5.408 -0.044,0 0,-0.88 c 0,-0.7 0.016,-1.349 0.044,-1.951 l 0,-0.336 0.018,0 C -8.133,1.429 -6.8,0 -6.8,0 L 0,0 Z" />
          </g>
          <g
             transform="translate(388.0082,344.6561)"
             id="g4403">
            <path
               inkscape:connector-curvature="0"
               id="path4405"
               style="fill:#ffffff;fill-opacity:1;fill-rule:nonzero;stroke:none"
               d="m 0,0 -0.028,0 0,4.187 0,0.558 0,4.172 c -0.652,3.733 -2.821,6.943 -5.852,8.968 -0.509,0.341 -1.043,0.646 -1.598,0.916 l -0.021,0 c -0.213,0.107 -0.429,0.21 -0.649,0.305 -0.022,0.009 -0.043,0.018 -0.064,0.027 -0.128,0.054 -0.258,0.103 -0.389,0.154 -1.159,0.441 -2.393,0.728 -3.68,0.835 -0.048,0.004 -0.095,0.01 -0.142,0.012 -0.112,0.009 -0.229,0.014 -0.342,0.02 -0.187,0.008 -0.375,0.015 -0.565,0.017 -0.027,0 -0.054,0.001 -0.082,0.001 -0.222,0 -0.442,-0.006 -0.659,-0.016 -0.032,-0.002 -0.062,-0.004 -0.093,-0.006 -0.191,-0.009 -0.381,-0.024 -0.569,-0.042 -0.036,-0.003 -0.071,-0.007 -0.108,-0.01 -0.429,-0.044 -0.85,-0.108 -1.261,-0.191 -0.034,-0.005 -0.067,-0.012 -0.101,-0.021 -0.186,-0.038 -0.37,-0.08 -0.552,-0.126 -0.017,-0.003 -0.032,-0.007 -0.048,-0.012 -5.747,-1.481 -9.524,-6.672 -9.524,-12.801 0,-7.221 5.416,-13.078 12.052,-13.078 2.996,0 5.705,1.055 7.605,3.113 0.018,0.02 0.039,0.039 0.057,0.059 l 0,-0.49 c 0.083,-0.597 0.179,-1.127 0.282,-1.6 0.127,-0.582 0.264,-1.078 0.402,-1.493 l 7.279,0 C 0.726,-5.266 0.128,-3.224 0,0 m -9.379,1.168 c -1.128,-0.85 -2.531,-1.353 -4.051,-1.353 -3.244,0 -5.953,2.292 -6.598,5.344 -0.004,0.021 -0.01,0.043 -0.014,0.065 -0.087,0.432 -0.133,0.879 -0.133,1.336 0,1.228 0.331,2.38 0.905,3.372 1.166,2.015 3.343,3.373 5.84,3.373 2.428,0 4.557,-1.286 5.745,-3.212 0.087,-0.143 0.169,-0.29 0.247,-0.439 0.479,-0.928 0.752,-1.978 0.752,-3.094 0,-2.204 -1.057,-4.162 -2.693,-5.392" />
          </g>
          <g
             transform="translate(261.1288,359.8393)"
             id="g4407">
            <path
               inkscape:connector-curvature="0"
               id="path4409"
               style="fill:#ffffff;fill-opacity:1;fill-rule:nonzero;stroke:none"
               d="m 0,0 c -0.213,0.655 -0.305,1.255 -0.276,1.799 0,0.144 0.021,0.355 0.063,0.628 0.041,0.271 0.086,0.571 0.127,0.898 0.041,0.328 0.091,0.635 0.148,0.928 0.056,0.289 0.086,0.526 0.086,0.707 0,0.291 -0.157,0.472 -0.468,0.546 l -9.466,-1.144 0.467,8.394 c 0.028,0.473 -0.007,0.89 -0.105,1.254 -0.1,0.363 -0.305,0.69 -0.617,0.981 L -16.62,13.41 c 0.537,-0.291 0.87,-0.863 0.998,-1.717 0.127,-0.854 0.191,-1.736 0.191,-2.643 L -15.686,3.708 -25.11,2.672 c -0.311,-0.073 -0.466,-0.256 -0.466,-0.546 0,-0.144 0.021,-0.337 0.064,-0.572 0.041,-0.236 0.083,-0.481 0.127,-0.737 0.042,-0.254 0.084,-0.499 0.127,-0.735 0.042,-0.236 0.063,-0.409 0.063,-0.517 -0.029,-0.51 -0.141,-1.063 -0.339,-1.664 -0.198,-0.598 -0.539,-1.317 -1.019,-2.152 0.566,-0.546 1.259,-0.856 2.079,-0.928 0.595,0 1.182,0.183 1.762,0.546 0.58,0.363 1.111,0.873 1.593,1.526 0.48,0.655 0.891,1.445 1.23,2.371 0.34,0.927 0.552,1.936 0.638,3.025 l 3.438,0.328 -1.138,-12.896 0,-2.334 c 0,-7.27 1.818,-9.09 1.818,-9.09 l 7.273,0 c 0,0 -2.437,1.223 -2.703,7.885 l -0.025,3.539 -0.12,0 c 0.076,0.009 0.12,0.011 0.12,0 l 0.759,13.549 3.1,0.438 c 0.226,-1.854 0.785,-3.436 1.677,-4.744 0.891,-1.308 1.972,-1.998 3.248,-2.071 0.933,0 1.922,0.309 2.97,0.926 C 0.601,-1.381 0.213,-0.654 0,0" />
          </g>
        </g>
      </g>
    </g>
  </g>
</svg>
